<?xml version="1.0" standalone="no"?>
<!DOCTYPE svg PUBLIC "-//W3C//DTD SVG 20010904//EN"
 "http://www.w3.org/TR/2001/REC-SVG-20010904/DTD/svg10.dtd">
<svg version="1.0" xmlns="http://www.w3.org/2000/svg"
 width="200.000000pt" height="200.000000pt" viewBox="0 0 200.000000 200.000000"
 preserveAspectRatio="xMidYMid meet">

<g transform="translate(0.000000,200.000000) scale(0.100000,-0.100000)"
fill="#000000" stroke="none">
<path d="M938 1851 c-15 -5 -51 -20 -80 -34 -29 -14 -80 -29 -113 -33 -71 -8
-106 -26 -131 -68 -17 -27 -19 -56 -22 -238 -4 -228 6 -293 55 -377 128 -219
438 -261 618 -83 99 97 125 179 125 394 0 135 -2 150 -20 168 -24 24 -29 24
-57 5 -20 -14 -21 -25 -25 -187 -3 -159 -5 -177 -27 -222 -31 -63 -84 -115
-146 -146 -70 -34 -180 -34 -250 0 -62 30 -115 83 -146 146 -23 46 -24 61 -27
256 -2 125 0 214 6 224 7 13 33 22 82 30 40 7 95 24 122 38 64 33 106 33 171
-1 45 -24 63 -28 132 -27 134 1 241 45 233 96 -6 39 -31 44 -110 23 -103 -27
-162 -25 -223 8 -56 29 -125 41 -167 28z"/>
<path d="M832 1458 c-7 -7 -12 -39 -12 -73 0 -34 5 -66 12 -73 17 -17 54 -15
72 4 18 18 22 104 6 135 -12 22 -59 26 -78 7z"/>
<path d="M1082 1458 c-7 -7 -12 -39 -12 -73 0 -34 5 -66 12 -73 20 -20 56 -14
74 13 20 30 15 122 -7 136 -20 12 -53 11 -67 -3z"/>
<path d="M865 837 c-197 -65 -295 -212 -295 -442 0 -108 10 -135 48 -135 41 1
47 15 52 138 5 102 10 126 33 174 31 62 84 116 149 149 65 34 203 38 279 10
75 -28 141 -88 175 -158 24 -48 28 -72 33 -177 6 -120 6 -121 33 -130 22 -8
32 -6 48 9 17 16 20 30 20 109 0 207 -84 353 -248 432 -51 25 -70 28 -172 31
-75 2 -129 -2 -155 -10z"/>
</g>
</svg>
