<?xml version="1.0" standalone="no"?>
<!DOCTYPE svg PUBLIC "-//W3C//DTD SVG 20010904//EN"
 "http://www.w3.org/TR/2001/REC-SVG-20010904/DTD/svg10.dtd">
<svg version="1.0" xmlns="http://www.w3.org/2000/svg"
 width="500.000000pt" height="476.000000pt" viewBox="0 0 500.000000 476.000000"
 preserveAspectRatio="xMidYMid meet">

<g transform="translate(0.000000,476.000000) scale(0.100000,-0.100000)"
fill="#000000" stroke="none">
<path d="M1547 4592 c-26 -27 -98 -77 -164 -115 -178 -102 -321 -214 -484
-376 -218 -218 -343 -397 -405 -581 -25 -74 -25 -221 1 -310 11 -39 19 -97 19
-147 0 -74 -4 -88 -37 -156 -40 -80 -204 -268 -264 -303 -43 -24 -57 -61 -50
-132 8 -82 35 -135 105 -197 33 -31 64 -65 67 -76 4 -11 -3 -52 -15 -92 -27
-89 -23 -128 23 -198 28 -43 36 -67 40 -121 5 -49 16 -86 42 -138 25 -50 41
-100 51 -161 36 -224 118 -311 324 -348 36 -6 133 -18 217 -26 281 -29 304
-50 339 -317 15 -122 15 -130 -21 -227 -22 -60 -12 -112 29 -155 73 -79 191
-63 240 32 7 15 19 53 25 84 12 55 18 63 154 204 78 81 168 169 199 195 l57
47 105 0 c104 0 106 -1 149 -34 48 -37 569 -573 593 -610 9 -13 23 -53 31 -89
10 -46 23 -74 45 -95 27 -28 35 -30 102 -30 64 0 76 3 100 25 64 60 62 159 -6
222 -14 13 -53 30 -94 39 l-69 16 -299 302 c-165 165 -307 315 -318 331 -13
22 -18 50 -18 108 0 46 -6 92 -15 114 -32 75 -33 72 167 428 236 418 220 395
302 414 30 7 80 27 111 46 39 24 70 35 95 35 48 0 567 -127 598 -146 33 -21
28 -53 -29 -183 -64 -147 -68 -153 -134 -195 -62 -40 -88 -83 -87 -143 0 -53
29 -101 81 -137 44 -31 57 -58 106 -214 40 -130 41 -143 18 -233 -16 -64 -16
-66 6 -112 17 -34 33 -51 65 -66 53 -26 79 -26 131 -1 54 26 75 65 84 155 8
81 22 105 81 135 53 27 101 38 270 60 241 31 313 55 381 127 54 56 76 108 98
231 15 84 28 126 54 174 28 49 37 79 43 138 6 62 13 83 40 123 46 66 51 103
25 179 -33 96 -30 110 38 177 78 77 95 111 95 186 0 84 -31 138 -158 274 -161
172 -192 258 -159 439 27 143 24 308 -5 394 -27 78 -92 190 -177 303 -83 112
-321 347 -442 439 -59 43 -120 100 -143 130 -86 113 -184 114 -280 3 -19 -22
-45 -43 -59 -49 -24 -9 -153 -44 -965 -258 -200 -53 -319 -80 -337 -76 -16 3
-47 19 -69 35 -26 19 -69 36 -115 46 -86 19 -90 23 -176 165 -60 99 -64 109
-65 170 -2 104 -3 107 -30 139 -25 30 -27 31 -118 31 l-92 0 -47 -48z m129
-231 c32 -14 52 -36 93 -101 29 -45 65 -104 79 -132 l26 -50 -17 -63 c-9 -35
-17 -92 -17 -128 0 -51 -5 -70 -22 -92 -32 -41 -608 -585 -643 -607 -24 -16
-41 -18 -88 -14 -88 9 -143 -9 -197 -63 -85 -86 -92 -202 -18 -287 72 -82 181
-98 290 -43 44 22 70 30 92 26 17 -3 191 -62 386 -132 195 -70 463 -165 595
-212 308 -109 310 -110 342 -179 43 -94 42 -121 -8 -211 -172 -314 -343 -611
-362 -630 -28 -27 -157 -66 -222 -67 -46 0 -74 13 -350 163 -165 90 -363 197
-440 238 -171 92 -202 115 -240 183 -37 66 -70 91 -127 97 -77 9 -150 -48
-163 -127 -6 -33 -2 -51 17 -87 33 -65 72 -84 173 -82 92 2 77 9 400 -166 105
-56 285 -153 400 -215 116 -61 222 -124 237 -139 33 -31 50 -106 37 -155 -6
-22 -63 -85 -182 -204 -95 -94 -178 -172 -184 -172 -22 0 -32 28 -47 135 -29
193 -59 272 -128 331 -76 64 -159 84 -453 113 -231 23 -267 52 -299 243 -11
67 -27 122 -52 173 l-36 75 16 50 c25 77 22 96 -29 146 -51 49 -53 60 -29 161
17 74 14 144 -7 170 -8 9 -38 33 -66 55 -29 21 -60 50 -69 63 -26 40 -3 84 96
188 164 173 209 259 217 417 4 72 0 118 -16 194 -33 158 -27 227 35 349 131
260 450 577 766 760 93 53 143 60 214 28z m2004 -122 c46 -28 57 -44 74 -104
66 -226 246 -929 246 -959 0 -25 -10 -51 -29 -79 -16 -23 -38 -75 -50 -114
-25 -84 -25 -84 -211 -168 -621 -282 -685 -309 -735 -309 -51 0 -195 49 -222
76 -18 19 -512 1084 -525 1134 -11 38 -9 47 24 116 28 58 42 77 67 87 62 26
1247 339 1286 340 24 1 54 -7 75 -20z m275 -77 c17 -10 77 -61 135 -114 264
-238 440 -508 440 -673 0 -23 -10 -89 -21 -146 -16 -80 -20 -126 -17 -199 8
-152 53 -242 197 -394 106 -111 121 -133 121 -173 0 -27 -8 -42 -35 -67 -109
-100 -113 -104 -120 -143 -4 -24 0 -66 9 -107 22 -94 20 -120 -9 -147 -14 -13
-34 -38 -45 -55 -19 -29 -19 -38 -9 -100 12 -68 11 -70 -21 -143 -18 -41 -38
-110 -46 -154 -37 -209 -61 -229 -324 -262 -242 -29 -312 -48 -397 -105 -72
-49 -80 -52 -97 -35 -8 9 -30 62 -47 117 -26 87 -30 111 -24 158 4 30 8 105 9
165 l1 110 55 123 c64 145 85 172 135 172 42 0 266 -55 310 -76 17 -8 46 -30
64 -49 63 -68 139 -85 203 -48 38 22 78 86 78 126 0 68 -59 140 -126 153 -23
4 -58 1 -95 -10 -32 -9 -76 -16 -96 -16 -47 0 -269 55 -289 71 -8 6 -14 23
-14 36 0 38 201 491 231 522 14 14 49 34 78 44 100 35 161 114 161 209 -1 93
-52 168 -148 217 -48 24 -56 34 -75 96 -40 126 -238 896 -232 905 9 15 26 12
60 -8z m-1930 -463 c73 -18 45 34 422 -779 91 -195 167 -369 170 -387 7 -44
-19 -57 -79 -39 -135 42 -1191 427 -1238 451 -39 20 -57 82 -36 123 15 28 604
591 653 624 33 21 48 22 108 7z m1903 -982 c3 -15 -37 -113 -155 -378 -55
-125 -62 -134 -109 -132 -43 2 -515 118 -545 134 -34 18 -20 37 49 70 249 118
735 329 747 326 6 -2 11 -11 13 -20z"/>
</g>
</svg>
