<?xml version="1.0" standalone="no"?>
<!DOCTYPE svg PUBLIC "-//W3C//DTD SVG 20010904//EN"
 "http://www.w3.org/TR/2001/REC-SVG-20010904/DTD/svg10.dtd">
<svg version="1.0" xmlns="http://www.w3.org/2000/svg"
 width="293.000000pt" height="350.000000pt" viewBox="0 0 293.000000 350.000000"
 preserveAspectRatio="xMidYMid meet">

<g transform="translate(0.000000,350.000000) scale(0.100000,-0.100000)"
fill="#000000" stroke="none">
<path d="M889 3483 c-1 -5 -1 -12 0 -16 1 -5 -3 -6 -8 -2 -6 3 -31 -14 -57
-39 -44 -40 -47 -46 -34 -63 14 -17 14 -17 -3 -4 -17 14 -22 11 -52 -25 -32
-37 -32 -40 -17 -59 16 -19 16 -19 -1 -6 -14 11 -21 11 -30 2 -8 -8 2 -25 43
-68 l55 -57 -54 47 c-29 26 -56 47 -60 47 -4 0 -13 -12 -20 -27 -11 -24 -9
-29 21 -62 32 -35 32 -35 3 -11 -16 14 -31 28 -33 33 -2 4 -8 7 -13 7 -18 0
-8 -25 24 -60 32 -34 32 -35 1 -7 -47 43 -76 30 -36 -17 17 -21 17 -21 -5 -3
-31 27 -41 2 -12 -31 l24 -26 -26 16 c-38 24 -44 10 -12 -26 17 -19 20 -24 6
-12 -14 11 -29 16 -40 11 -19 -7 -14 -13 63 -73 16 -12 7 -9 -20 8 -28 16 -53
30 -57 30 -4 0 -10 -12 -14 -27 -6 -24 -1 -33 32 -62 29 -25 31 -29 8 -14 -50
33 -53 33 -59 18 -4 -10 8 -24 35 -41 23 -14 39 -28 36 -30 -3 -3 -20 4 -38
15 -44 27 -46 27 -54 -10 -5 -23 -3 -34 7 -40 8 -5 26 -17 39 -29 20 -17 21
-19 4 -13 -11 3 -31 13 -44 22 -23 15 -24 15 -12 -7 7 -13 18 -25 25 -28 7 -3
13 -11 13 -19 0 -11 -5 -11 -19 -4 -34 18 -40 4 -12 -24 l28 -28 -28 11 c-15
5 -28 10 -29 10 -1 0 -2 -11 -2 -25 0 -20 4 -24 20 -19 l20 5 -20 -12 c-30
-18 -31 -19 -15 -30 10 -6 11 -12 5 -16 -12 -9 -13 -23 -2 -40 4 -7 0 -13 -10
-16 -15 -3 -14 -6 7 -16 23 -11 23 -11 3 -7 -20 3 -23 0 -23 -25 0 -16 0 -32
-1 -36 0 -5 10 -11 23 -15 23 -6 23 -6 -2 -7 l-25 -1 3 -97 c4 -109 38 -298
78 -425 48 -153 140 -313 228 -398 43 -41 116 -164 104 -175 -8 -8 -176 53
-211 76 -91 62 -150 136 -185 232 -27 72 -27 102 -2 152 11 22 20 47 20 56 0
25 -27 84 -44 99 -14 10 -16 9 -16 -8 0 -13 -9 -22 -25 -26 -31 -8 -32 -22 -4
-31 30 -10 3 -26 -28 -18 -20 4 -23 1 -23 -26 0 -19 11 -42 30 -65 31 -35 75
-175 68 -219 -3 -18 -6 -17 -47 14 -32 25 -49 48 -63 87 -21 56 -59 86 -101
80 -20 -3 -22 -8 -20 -53 2 -39 0 -44 -6 -25 -8 23 -9 22 -10 -12 -1 -45 24
-63 77 -54 27 4 45 0 71 -17 68 -42 99 -77 68 -77 -7 0 -21 -6 -31 -13 -15
-11 -11 -13 30 -15 50 -2 101 -24 204 -91 33 -22 91 -50 128 -62 127 -41 232
-109 219 -141 -5 -14 -16 -14 -99 6 -53 13 -123 39 -163 60 -64 35 -75 38
-128 33 -62 -6 -137 -45 -137 -72 0 -7 29 -28 65 -46 73 -36 116 -35 180 2 29
17 45 20 84 15 46 -6 162 -34 168 -40 2 -1 -10 -27 -27 -57 -96 -174 -94 -380
6 -528 67 -99 222 -240 400 -364 45 -31 88 -57 96 -57 9 0 28 10 43 22 l27 21
-7 -23 c-6 -18 -4 -22 8 -17 15 6 37 -13 51 -43 4 -8 -3 -2 -17 13 -20 24 -25
26 -30 12 -4 -9 -3 -14 3 -10 6 4 18 -7 28 -24 9 -17 21 -31 26 -31 6 0 20
-10 33 -22 13 -12 23 -17 23 -11 0 6 -7 16 -15 23 -8 7 -15 18 -15 24 0 6 11
-2 23 -18 28 -34 31 -34 125 28 196 130 272 286 237 488 -15 86 -47 192 -65
213 -17 21 9 24 58 7 23 -8 54 -11 67 -8 31 8 105 73 105 92 0 41 -137 62
-198 30 -18 -10 -45 -16 -59 -14 l-26 3 26 30 c37 45 111 82 209 104 120 28
191 28 253 1 53 -23 122 -28 155 -10 19 10 25 35 22 88 0 15 3 20 11 16 7 -4
5 1 -4 10 -41 44 -139 40 -209 -7 -44 -30 -91 -45 -157 -50 -84 -6 -86 5 -17
71 67 63 155 112 201 112 37 0 76 19 103 50 20 23 37 86 26 97 -12 13 -92 2
-115 -15 -13 -9 -31 -37 -41 -62 -14 -38 -25 -49 -71 -73 -29 -15 -55 -23 -57
-18 -4 13 35 89 70 133 60 77 180 143 331 182 41 11 63 12 94 3 67 -18 123 20
123 82 0 40 -112 50 -142 14 -7 -8 -17 -25 -23 -37 -11 -21 -110 -64 -122 -52
-22 22 124 184 197 218 40 19 49 28 48 48 0 14 3 33 7 43 4 10 3 17 -4 17 -16
0 -51 -38 -51 -55 0 -23 -46 -65 -71 -65 -20 0 -21 4 -16 41 3 23 21 64 40 93
18 28 43 66 54 84 11 18 35 41 53 50 44 22 58 63 35 98 -36 55 -101 -1 -97
-83 2 -59 -30 -136 -55 -131 -10 2 -22 19 -29 43 -7 22 -21 62 -33 88 -23 54
-29 156 -11 203 9 22 6 43 -10 96 -23 75 -21 88 14 88 15 0 26 7 29 20 3 11 1
20 -4 20 -11 0 -70 -40 -80 -54 -10 -13 -29 28 -29 62 0 26 -3 29 -25 25 -20
-4 -27 1 -42 32 -16 34 -16 38 -1 49 15 11 14 14 -13 30 -36 21 -41 69 -9 88
20 13 28 58 10 58 -6 0 -17 -18 -26 -40 -13 -33 -19 -38 -30 -29 -8 7 -12 14
-9 17 3 3 -3 14 -12 24 -10 11 -16 32 -15 49 2 20 -2 29 -13 29 -25 0 -18 -40
21 -120 20 -41 45 -97 55 -123 11 -27 31 -64 44 -81 14 -18 25 -36 25 -40 0
-4 14 -21 31 -39 17 -18 35 -43 40 -57 11 -27 24 -250 14 -250 -8 0 -38 34
-53 58 -10 18 -10 22 0 22 9 0 9 3 -1 9 -8 5 -24 7 -37 5 -12 -2 -26 0 -29 6
-3 5 -12 10 -18 10 -8 0 -8 -3 1 -9 8 -4 14 -12 13 -17 0 -5 12 -8 27 -7 18 2
23 0 13 -6 -9 -6 -10 -11 -2 -15 6 -4 16 -4 21 -1 6 3 10 1 10 -5 0 -6 19 -50
42 -98 41 -83 43 -91 43 -177 0 -85 -3 -96 -37 -165 -48 -99 -93 -149 -166
-188 -33 -18 -63 -32 -67 -32 -9 0 45 93 74 126 27 31 36 74 16 74 -13 0 -25
21 -25 46 0 8 5 14 11 14 5 0 7 -4 4 -10 -3 -5 -2 -17 3 -26 8 -15 10 -15 15
0 5 12 3 15 -5 10 -8 -5 -9 -1 -4 12 12 32 12 36 -7 39 -10 2 -15 -1 -11 -8 3
-7 -2 -3 -11 8 -17 22 -19 20 -50 -37 -19 -34 -19 -55 -1 -105 13 -38 13 -43
-13 -90 -33 -59 -83 -132 -92 -133 -4 0 -9 14 -13 31 -12 60 -7 97 18 126 40
47 38 89 -5 138 -37 42 -49 37 -75 -31 -17 -44 -16 -46 6 -94 19 -40 23 -67
24 -152 1 -99 -1 -106 -35 -178 -45 -94 -121 -179 -218 -241 -41 -27 -76 -47
-78 -45 -5 4 46 96 67 121 9 11 20 28 23 38 9 24 -14 76 -46 106 l-26 23 -20
-41 c-25 -47 -27 -90 -6 -117 20 -26 19 -48 -6 -95 l-20 -40 -26 38 c-45 66
-125 153 -208 227 -44 38 -80 75 -80 80 0 6 56 49 125 96 118 81 126 88 142
135 l16 50 81 5 c71 4 84 8 108 32 23 24 27 35 26 82 -1 37 3 59 13 67 8 6 14
19 14 28 0 9 5 22 12 29 8 8 8 15 -2 28 -12 14 -11 18 9 33 20 15 22 23 16 62
l-7 44 46 13 c70 18 73 37 19 117 -78 116 -92 178 -52 229 19 24 20 29 6 44
-14 15 -14 24 4 87 26 94 26 167 0 236 -76 201 -292 404 -629 594 -125 70
-214 107 -351 146 -103 29 -160 36 -162 22z m-124 -193 c10 -11 16 -20 13 -20
-3 0 -13 9 -23 20 -10 11 -16 20 -13 20 3 0 13 -9 23 -20z m378 -118 c50 -38
145 -107 210 -154 133 -96 290 -228 282 -236 -7 -8 -233 -4 -259 4 -30 9 -156
85 -156 94 0 4 -9 17 -20 30 l-20 23 0 -37 c0 -32 3 -37 29 -42 16 -3 46 -20
67 -37 l38 -31 -30 -7 c-17 -3 -117 -6 -224 -7 -185 -1 -229 -8 -205 -31 6 -5
191 -11 413 -14 222 -3 406 -7 408 -10 3 -3 -21 -12 -53 -21 -218 -61 -401
-129 -474 -176 -90 -58 -161 -88 -232 -98 -43 -6 -52 -11 -52 -27 0 -20 9 -20
493 -25 l493 -5 -33 -34 c-34 -35 -99 -70 -132 -71 -10 0 -31 11 -48 25 -16
14 -33 25 -38 25 -4 0 -10 -20 -12 -45 -2 -33 1 -46 12 -51 19 -7 -64 -41
-132 -54 -26 -5 -171 -10 -322 -10 -230 -1 -277 -4 -287 -16 -8 -9 -9 -18 -3
-24 5 -5 113 -11 239 -12 144 -2 223 -6 210 -12 -215 -95 -308 -161 -356 -250
-13 -26 -27 -46 -30 -46 -12 0 -106 144 -143 217 -49 98 -83 203 -100 309 -13
82 -12 98 5 203 45 260 139 468 299 659 28 34 56 62 61 62 5 0 51 -31 102 -68z
m-438 8 c21 -22 37 -40 34 -40 -3 0 -23 18 -44 40 -21 22 -37 40 -34 40 3 0
23 -18 44 -40z m-34 -127 c13 -16 12 -17 -3 -4 -10 7 -18 15 -18 17 0 8 8 3
21 -13z m-30 -70 c13 -16 12 -17 -3 -4 -10 7 -18 15 -18 17 0 8 8 3 21 -13z
m-55 -53 c24 -17 44 -33 44 -36 0 -3 -21 9 -47 27 -58 39 -58 39 -49 39 4 0
27 -14 52 -30z m-71 -101 c4 -5 18 -15 32 -20 14 -5 23 -12 20 -15 -6 -7 -63
22 -72 36 -3 5 -2 10 4 10 5 0 13 -5 16 -11z m1250 -195 c20 -25 36 -47 34
-49 -7 -6 -303 -11 -354 -5 l-50 5 62 23 c63 25 225 69 254 71 9 1 33 -19 54
-45z m84 -141 c22 -80 58 -73 -381 -73 l-393 0 25 20 c42 33 125 71 177 80 26
4 164 8 305 9 l257 1 10 -37z m-1269 -38 c0 -8 -5 -15 -11 -15 -8 0 -8 -4 0
-13 6 -8 9 -23 6 -34 -3 -18 0 -21 23 -17 21 4 24 3 15 -7 -14 -14 -123 -26
-124 -13 0 5 -2 19 -3 32 -2 12 1 22 6 22 5 0 7 4 4 9 -6 10 51 51 72 51 6 0
12 -7 12 -15z m1253 -251 l-19 -49 -124 -2 -125 -3 55 24 c73 30 202 95 215
107 18 18 17 -25 -2 -77z m-57 -117 c2 -7 -2 -30 -11 -50 l-15 -37 -257 0
c-141 0 -254 2 -251 5 3 3 50 26 104 50 l99 45 163 0 c124 0 164 -3 168 -13z
m-46 -147 c0 -5 -5 -20 -11 -33 -9 -20 -21 -26 -63 -31 -92 -11 -598 -7 -591
5 4 6 25 24 47 40 l41 29 289 0 c176 0 288 -4 288 -10z m-70 -128 c0 -25 -395
-352 -426 -352 -14 0 -175 168 -210 221 -24 34 -24 36 -9 87 l16 52 314 0
c173 0 315 -4 315 -8z m-845 -152 c27 -28 27 -31 12 -48 -10 -10 -14 -22 -10
-25 3 -4 1 -7 -6 -7 -7 0 -9 -4 -6 -10 3 -5 1 -10 -6 -10 -8 0 -8 -4 1 -15 10
-12 9 -16 -4 -21 -9 -3 -13 -11 -10 -18 3 -6 -6 2 -20 17 -14 15 -26 38 -26
51 0 28 29 116 39 116 4 0 20 -13 36 -30z m182 -318 l46 -53 -25 -25 -25 -26
-46 49 c-63 65 -111 156 -102 191 l7 27 49 -55 c27 -30 70 -79 96 -108z m339
-282 c106 -118 214 -268 309 -432 48 -83 88 -156 89 -163 1 -17 -144 -185
-160 -185 -21 0 -132 89 -245 198 -138 132 -289 330 -289 378 0 11 18 47 40
80 44 68 168 206 180 202 5 -2 38 -37 76 -78z"/>
<path d="M1177 1759 c-41 -24 15 -93 68 -83 22 4 35 1 44 -10 8 -9 18 -16 24
-16 6 0 1 10 -11 23 -12 13 -22 29 -22 36 0 18 -47 61 -67 61 -10 0 -26 -5
-36 -11z"/>
<path d="M2190 2910 c-13 -8 -13 -11 2 -27 21 -20 45 -5 35 21 -7 18 -16 20
-37 6z"/>
<path d="M2440 2770 c0 -5 5 -10 10 -10 6 0 10 5 10 10 0 6 -4 10 -10 10 -5 0
-10 -4 -10 -10z"/>
<path d="M2210 2740 c0 -16 5 -21 23 -18 12 2 22 10 22 18 0 8 -10 16 -22 18
-18 3 -23 -2 -23 -18z"/>
<path d="M2477 2727 c-3 -8 -1 -20 3 -27 11 -18 41 5 33 26 -7 18 -29 18 -36
1z"/>
<path d="M2182 2659 c2 -6 8 -10 13 -10 5 0 11 4 13 10 2 6 -4 11 -13 11 -9 0
-15 -5 -13 -11z"/>
<path d="M2427 2663 c-12 -12 -7 -43 7 -43 13 0 26 20 26 41 0 10 -23 12 -33
2z"/>
<path d="M2305 2630 c3 -5 8 -10 11 -10 2 0 4 5 4 10 0 6 -5 10 -11 10 -5 0
-7 -4 -4 -10z"/>
<path d="M2519 2597 c-15 -12 -32 -32 -38 -44 -11 -22 -11 -22 26 3 21 14 39
34 39 45 1 10 1 19 0 19 0 -1 -13 -11 -27 -23z"/>
<path d="M2327 2504 c-14 -15 -6 -34 14 -34 14 0 19 5 17 17 -3 18 -20 27 -31
17z"/>
<path d="M137 2378 c-20 -11 -22 -39 -5 -56 16 -16 33 -15 52 4 29 28 -11 72
-47 52z"/>
<path d="M2410 2361 c0 -6 4 -12 9 -15 13 -8 42 4 35 15 -7 12 -44 12 -44 0z"/>
<path d="M2207 2323 c-4 -3 -7 -15 -7 -25 0 -12 7 -18 24 -18 29 0 39 12 30
34 -6 16 -35 22 -47 9z"/>
<path d="M2294 2056 c-9 -22 15 -48 40 -44 15 2 21 10 21 28 0 20 -6 26 -28
28 -18 2 -29 -2 -33 -12z"/>
<path d="M241 2009 c-17 -48 -14 -61 12 -57 16 2 23 11 25 34 2 18 -3 36 -11
43 -12 10 -17 6 -26 -20z"/>
<path d="M2191 1916 c-20 -24 -9 -51 19 -51 21 0 25 5 25 30 0 34 -24 45 -44
21z"/>
<path d="M1864 1475 c-9 -23 3 -45 25 -45 20 0 37 32 26 50 -9 15 -45 12 -51
-5z"/>
<path d="M186 1417 c-13 -9 -16 -20 -11 -39 10 -41 27 -29 63 45 6 12 -33 8
-52 -6z"/>
<path d="M1932 1298 c-16 -16 -15 -53 3 -68 22 -18 49 -8 60 24 8 23 6 30 -10
42 -23 17 -37 18 -53 2z"/>
</g>
</svg>
